<svg width="115" height="19" viewBox="0 0 115 19" fill="none" xmlns="http://www.w3.org/2000/svg">
<path d="M1.37091e-06 18.4517V0.997114H11.7614V4.03973H3.69034V8.19882H11.1563V11.2414H3.69034V15.409H11.7955V18.4517H1.37091e-06ZM18.3812 5.36075L20.7846 9.93746L23.2477 5.36075H26.9721L23.1795 11.9062L27.0744 18.4517H23.367L20.7846 13.9261L18.2449 18.4517H14.4949L18.3812 11.9062L14.6312 5.36075H18.3812ZM35.2944 18.7073C33.9535 18.7073 32.8001 18.4233 31.8342 17.8551C30.874 17.2812 30.1353 16.4858 29.6183 15.4687C29.1069 14.4517 28.8512 13.2812 28.8512 11.9573C28.8512 10.6164 29.1097 9.4403 29.6268 8.42893C30.1495 7.41189 30.891 6.61927 31.8512 6.05109C32.8115 5.47723 33.9535 5.1903 35.2774 5.1903C36.4194 5.1903 37.4194 5.39768 38.2774 5.81245C39.1353 6.22723 39.8143 6.80961 40.3143 7.55961C40.8143 8.30961 41.0899 9.1903 41.141 10.2017H37.7149C37.6183 9.54825 37.3626 9.02268 36.9478 8.62496C36.5387 8.22155 36.0018 8.01984 35.337 8.01984C34.7745 8.01984 34.283 8.17325 33.8626 8.48007C33.4478 8.78121 33.124 9.22155 32.891 9.80109C32.658 10.3806 32.5416 11.0823 32.5416 11.9062C32.5416 12.7414 32.6552 13.4517 32.8825 14.0369C33.1154 14.6221 33.4421 15.0681 33.8626 15.375C34.283 15.6818 34.7745 15.8352 35.337 15.8352C35.7518 15.8352 36.124 15.75 36.4535 15.5795C36.7887 15.409 37.0643 15.1619 37.2802 14.838C37.5018 14.5085 37.6467 14.1136 37.7149 13.6534H41.141C41.0842 14.6534 40.8115 15.534 40.3228 16.2954C39.8399 17.0511 39.1722 17.642 38.32 18.0681C37.4677 18.4943 36.4592 18.7073 35.2944 18.7073ZM47.8163 0.997114V18.4517H44.1856V0.997114H47.8163ZM59.8395 12.8778V5.36075H63.4702V18.4517H59.9844V16.0738H59.848C59.5526 16.8409 59.0611 17.4573 58.3736 17.9233C57.6918 18.3892 56.8594 18.6221 55.8765 18.6221C55.0015 18.6221 54.2316 18.4233 53.5668 18.0255C52.902 17.6278 52.3821 17.0625 52.0071 16.3295C51.6378 15.5965 51.4503 14.7187 51.4446 13.696V5.36075H55.0753V13.0483C55.081 13.821 55.2884 14.4318 55.6975 14.8806C56.1066 15.3295 56.6549 15.5539 57.3424 15.5539C57.7799 15.5539 58.189 15.4545 58.5696 15.2556C58.9503 15.0511 59.2571 14.75 59.4901 14.3522C59.7287 13.9545 59.8452 13.463 59.8395 12.8778ZM77.9864 9.09371L74.6625 9.29825C74.6057 9.01416 74.4835 8.75848 74.296 8.53121C74.1085 8.29825 73.8614 8.11359 73.5545 7.97723C73.2534 7.83518 72.8926 7.76416 72.4722 7.76416C71.9097 7.76416 71.4352 7.88348 71.0489 8.12211C70.6625 8.35507 70.4693 8.66757 70.4693 9.05961C70.4693 9.37211 70.5943 9.63632 70.8443 9.85223C71.0943 10.0681 71.5233 10.2414 72.1313 10.3721L74.5006 10.8494C75.7733 11.1108 76.7222 11.5312 77.3472 12.1108C77.9722 12.6903 78.2847 13.4517 78.2847 14.3948C78.2847 15.2528 78.0318 16.0056 77.5261 16.6534C77.0261 17.3011 76.3386 17.8068 75.4636 18.1704C74.5943 18.5284 73.5915 18.7073 72.4551 18.7073C70.7222 18.7073 69.3415 18.3465 68.3131 17.625C67.2903 16.8977 66.6909 15.909 66.5148 14.659L70.0858 14.4715C70.1938 15 70.4551 15.4034 70.8699 15.6818C71.2847 15.9545 71.8159 16.0909 72.4636 16.0909C73.1 16.0909 73.6114 15.9687 73.9977 15.7244C74.3898 15.4744 74.5886 15.1534 74.5943 14.7613C74.5886 14.4318 74.4494 14.1619 74.1767 13.9517C73.904 13.7358 73.4835 13.571 72.9153 13.4573L70.6483 13.0056C69.3699 12.75 68.4182 12.3068 67.7932 11.6761C67.1739 11.0454 66.8642 10.2414 66.8642 9.26416C66.8642 8.42325 67.0915 7.69882 67.546 7.09086C68.0062 6.48291 68.6511 6.01416 69.4807 5.68461C70.3159 5.35507 71.2932 5.1903 72.4125 5.1903C74.0659 5.1903 75.367 5.53973 76.3159 6.23859C77.2705 6.93746 77.8273 7.88916 77.9864 9.09371ZM81.2909 18.4517V5.36075H84.9216V18.4517H81.2909ZM83.1147 3.67325C82.575 3.67325 82.1119 3.49427 81.7255 3.13632C81.3449 2.77268 81.1545 2.33802 81.1545 1.83234C81.1545 1.33234 81.3449 0.903364 81.7255 0.54541C82.1119 0.181773 82.575 -4.52995e-05 83.1147 -4.52995e-05C83.6545 -4.52995e-05 84.1147 0.181773 84.4954 0.54541C84.8818 0.903364 85.075 1.33234 85.075 1.83234C85.075 2.33802 84.8818 2.77268 84.4954 3.13632C84.1147 3.49427 83.6545 3.67325 83.1147 3.67325ZM100.754 5.36075L96.1778 18.4517H92.0869L87.5102 5.36075H91.3454L94.0642 14.7272H94.2005L96.9107 5.36075H100.754ZM108.876 18.7073C107.53 18.7073 106.371 18.4346 105.399 17.8892C104.433 17.338 103.689 16.5596 103.166 15.5539C102.644 14.5426 102.382 13.3465 102.382 11.9659C102.382 10.6193 102.644 9.43746 103.166 8.42041C103.689 7.40336 104.425 6.61075 105.374 6.04257C106.328 5.47439 107.448 5.1903 108.732 5.1903C109.595 5.1903 110.399 5.3295 111.144 5.60791C111.894 5.88064 112.547 6.29257 113.104 6.84371C113.666 7.39484 114.104 8.08802 114.416 8.92325C114.729 9.7528 114.885 10.7244 114.885 11.838V12.8352H103.831V10.5852H111.467C111.467 10.0625 111.354 9.59939 111.126 9.19598C110.899 8.79257 110.584 8.47723 110.18 8.24996C109.783 8.017 109.32 7.90052 108.791 7.90052C108.24 7.90052 107.751 8.02836 107.325 8.28405C106.905 8.53405 106.575 8.87211 106.337 9.29825C106.098 9.71871 105.976 10.1875 105.97 10.7045V12.8437C105.97 13.4914 106.09 14.0511 106.328 14.5227C106.573 14.9943 106.916 15.3579 107.359 15.6136C107.803 15.8693 108.328 15.9971 108.936 15.9971C109.34 15.9971 109.709 15.9403 110.044 15.8267C110.379 15.713 110.666 15.5426 110.905 15.3153C111.144 15.088 111.325 14.8096 111.45 14.4801L114.808 14.7017C114.638 15.5085 114.288 16.213 113.76 16.8153C113.237 17.4119 112.561 17.8778 111.732 18.213C110.908 18.5426 109.956 18.7073 108.876 18.7073Z" fill="#FAFAFA"/>
</svg>
